<svg width="285" height="329" viewBox="0 0 285 329" fill="none" xmlns="http://www.w3.org/2000/svg">
<rect width="285" height="329" rx="24" fill="#20484F"/>
<path d="M35.198 259H37.844L38.816 256.12H44L44.954 259H47.618L42.992 245.59H39.824L35.198 259ZM39.518 253.96L41.408 248.308L43.298 253.96H39.518ZM48.9125 262.6H51.2705V258.064C51.6305 258.436 52.0685 258.724 52.5845 258.928C53.1005 259.12 53.6585 259.216 54.2585 259.216C55.2065 259.216 56.0525 258.994 56.7965 258.55C57.5405 258.094 58.1285 257.482 58.5605 256.714C58.9925 255.934 59.2085 255.064 59.2085 254.104C59.2085 253.144 58.9925 252.28 58.5605 251.512C58.1285 250.732 57.5405 250.12 56.7965 249.676C56.0525 249.22 55.2125 248.992 54.2765 248.992C53.6045 248.992 52.9985 249.112 52.4585 249.352C51.9185 249.592 51.4745 249.928 51.1265 250.36V249.208H48.9125V262.6ZM53.9885 257.056C53.4725 257.056 53.0045 256.93 52.5845 256.678C52.1765 256.426 51.8525 256.078 51.6125 255.634C51.3845 255.19 51.2705 254.68 51.2705 254.104C51.2705 253.528 51.3845 253.018 51.6125 252.574C51.8525 252.13 52.1765 251.782 52.5845 251.53C53.0045 251.278 53.4725 251.152 53.9885 251.152C54.5285 251.152 55.0025 251.284 55.4105 251.548C55.8305 251.8 56.1605 252.148 56.4005 252.592C56.6405 253.036 56.7605 253.54 56.7605 254.104C56.7605 254.668 56.6405 255.178 56.4005 255.634C56.1605 256.078 55.8305 256.426 55.4105 256.678C55.0025 256.93 54.5285 257.056 53.9885 257.056ZM61.0062 262.6H63.3642V258.064C63.7242 258.436 64.1622 258.724 64.6782 258.928C65.1942 259.12 65.7522 259.216 66.3522 259.216C67.3002 259.216 68.1462 258.994 68.8902 258.55C69.6342 258.094 70.2222 257.482 70.6542 256.714C71.0862 255.934 71.3022 255.064 71.3022 254.104C71.3022 253.144 71.0862 252.28 70.6542 251.512C70.2222 250.732 69.6342 250.12 68.8902 249.676C68.1462 249.22 67.3062 248.992 66.3702 248.992C65.6982 248.992 65.0922 249.112 64.5522 249.352C64.0122 249.592 63.5682 249.928 63.2202 250.36V249.208H61.0062V262.6ZM66.0822 257.056C65.5662 257.056 65.0982 256.93 64.6782 256.678C64.2702 256.426 63.9462 256.078 63.7062 255.634C63.4782 255.19 63.3642 254.68 63.3642 254.104C63.3642 253.528 63.4782 253.018 63.7062 252.574C63.9462 252.13 64.2702 251.782 64.6782 251.53C65.0982 251.278 65.5662 251.152 66.0822 251.152C66.6222 251.152 67.0962 251.284 67.5042 251.548C67.9242 251.8 68.2542 252.148 68.4942 252.592C68.7342 253.036 68.8542 253.54 68.8542 254.104C68.8542 254.668 68.7342 255.178 68.4942 255.634C68.2542 256.078 67.9242 256.426 67.5042 256.678C67.0962 256.93 66.6222 257.056 66.0822 257.056ZM73.1 259H75.458V253.546C75.458 252.802 75.662 252.226 76.07 251.818C76.49 251.398 77.03 251.188 77.69 251.188H78.536V249.1H77.96C77.36 249.1 76.832 249.208 76.376 249.424C75.92 249.64 75.566 250.03 75.314 250.594V249.208H73.1V259ZM84.6204 259.216C85.5684 259.216 86.4324 259 87.2124 258.568C87.9924 258.124 88.6164 257.518 89.0844 256.75C89.5524 255.97 89.7864 255.088 89.7864 254.104C89.7864 253.12 89.5524 252.244 89.0844 251.476C88.6284 250.708 88.0104 250.102 87.2304 249.658C86.4504 249.214 85.5804 248.992 84.6204 248.992C83.6484 248.992 82.7724 249.214 81.9924 249.658C81.2124 250.102 80.5884 250.708 80.1204 251.476C79.6644 252.244 79.4364 253.12 79.4364 254.104C79.4364 255.088 79.6644 255.964 80.1204 256.732C80.5884 257.5 81.2124 258.106 81.9924 258.55C82.7844 258.994 83.6604 259.216 84.6204 259.216ZM84.6204 257.056C84.0924 257.056 83.6184 256.93 83.1984 256.678C82.7904 256.426 82.4664 256.078 82.2264 255.634C81.9984 255.178 81.8844 254.668 81.8844 254.104C81.8844 253.54 81.9984 253.036 82.2264 252.592C82.4664 252.148 82.7904 251.8 83.1984 251.548C83.6184 251.284 84.0924 251.152 84.6204 251.152C85.1484 251.152 85.6104 251.284 86.0064 251.548C86.4144 251.8 86.7324 252.148 86.9604 252.592C87.2004 253.036 87.3204 253.54 87.3204 254.104C87.3204 254.668 87.2004 255.178 86.9604 255.634C86.7324 256.078 86.4144 256.426 86.0064 256.678C85.6104 256.93 85.1484 257.056 84.6204 257.056ZM94.3508 259H96.4388L100.291 249.208H97.7168L95.3948 255.598L93.0728 249.208H90.4988L94.3508 259ZM104.213 259.216C105.485 259.216 106.505 258.796 107.273 257.956V259H109.505V252.484C109.505 251.8 109.331 251.194 108.983 250.666C108.635 250.138 108.155 249.73 107.543 249.442C106.943 249.142 106.241 248.992 105.437 248.992C104.453 248.992 103.577 249.226 102.809 249.694C102.041 250.162 101.513 250.78 101.225 251.548L103.151 252.484C103.331 252.04 103.613 251.686 103.997 251.422C104.381 251.146 104.831 251.008 105.347 251.008C105.887 251.008 106.319 251.152 106.643 251.44C106.979 251.716 107.147 252.064 107.147 252.484V252.808L104.231 253.276C103.079 253.468 102.227 253.834 101.675 254.374C101.123 254.914 100.847 255.592 100.847 256.408C100.847 257.272 101.153 257.956 101.765 258.46C102.377 258.964 103.193 259.216 104.213 259.216ZM103.295 256.318C103.295 255.634 103.757 255.202 104.681 255.022L107.147 254.608V255.004C107.147 255.676 106.913 256.246 106.445 256.714C105.989 257.182 105.389 257.416 104.645 257.416C104.249 257.416 103.925 257.32 103.673 257.128C103.421 256.924 103.295 256.654 103.295 256.318ZM111.684 259H114.042V245.59H111.684V259ZM119.418 259H121.776V253.546C121.776 252.802 121.98 252.226 122.388 251.818C122.808 251.398 123.348 251.188 124.008 251.188H124.854V249.1H124.278C123.678 249.1 123.15 249.208 122.694 249.424C122.238 249.64 121.884 250.03 121.632 250.594V249.208H119.418V259ZM129.121 259.216C130.393 259.216 131.413 258.796 132.181 257.956V259H134.413V252.484C134.413 251.8 134.239 251.194 133.891 250.666C133.543 250.138 133.063 249.73 132.451 249.442C131.851 249.142 131.149 248.992 130.345 248.992C129.361 248.992 128.485 249.226 127.717 249.694C126.949 250.162 126.421 250.78 126.133 251.548L128.059 252.484C128.239 252.04 128.521 251.686 128.905 251.422C129.289 251.146 129.739 251.008 130.255 251.008C130.795 251.008 131.227 251.152 131.551 251.44C131.887 251.716 132.055 252.064 132.055 252.484V252.808L129.139 253.276C127.987 253.468 127.135 253.834 126.583 254.374C126.031 254.914 125.755 255.592 125.755 256.408C125.755 257.272 126.061 257.956 126.673 258.46C127.285 258.964 128.101 259.216 129.121 259.216ZM128.203 256.318C128.203 255.634 128.665 255.202 129.589 255.022L132.055 254.608V255.004C132.055 255.676 131.821 256.246 131.353 256.714C130.897 257.182 130.297 257.416 129.553 257.416C129.157 257.416 128.833 257.32 128.581 257.128C128.329 256.924 128.203 256.654 128.203 256.318ZM140.88 259.108C141.276 259.108 141.666 259.078 142.05 259.018V256.984C141.822 257.02 141.612 257.038 141.42 257.038C140.844 257.038 140.424 256.906 140.16 256.642C139.896 256.378 139.764 256 139.764 255.508V251.314H142.014V249.208H139.764V246.976H137.406V247.732C137.406 248.212 137.274 248.578 137.01 248.83C136.746 249.082 136.374 249.208 135.894 249.208H135.714V251.314H137.406V255.634C137.406 256.726 137.706 257.578 138.306 258.19C138.918 258.802 139.776 259.108 140.88 259.108ZM143.852 248.11H146.21V245.59H143.852V248.11ZM143.852 259H146.21V249.208H143.852V259ZM148.387 259H150.745V253.258C150.745 252.622 150.925 252.112 151.285 251.728C151.657 251.344 152.137 251.152 152.725 251.152C153.313 251.152 153.787 251.344 154.147 251.728C154.519 252.1 154.705 252.61 154.705 253.258V259H157.063V252.7C157.063 251.968 156.907 251.326 156.595 250.774C156.283 250.21 155.845 249.772 155.281 249.46C154.729 249.148 154.093 248.992 153.373 248.992C152.761 248.992 152.209 249.112 151.717 249.352C151.237 249.592 150.865 249.946 150.601 250.414V249.208H148.387V259ZM163.809 262.96C164.745 262.96 165.573 262.768 166.293 262.384C167.013 262 167.577 261.472 167.985 260.8C168.393 260.128 168.597 259.366 168.597 258.514V249.208H166.365V250.342C165.621 249.442 164.619 248.992 163.359 248.992C162.459 248.992 161.655 249.202 160.947 249.622C160.239 250.03 159.681 250.594 159.273 251.314C158.865 252.034 158.661 252.856 158.661 253.78C158.661 254.692 158.865 255.514 159.273 256.246C159.681 256.978 160.245 257.554 160.965 257.974C161.685 258.394 162.501 258.604 163.413 258.604C164.601 258.604 165.543 258.22 166.239 257.452V258.514C166.239 259.234 166.011 259.792 165.555 260.188C165.099 260.596 164.517 260.8 163.809 260.8C163.185 260.8 162.657 260.656 162.225 260.368C161.805 260.092 161.523 259.726 161.379 259.27L159.183 260.098C159.495 260.962 160.065 261.652 160.893 262.168C161.733 262.696 162.705 262.96 163.809 262.96ZM163.701 256.426C162.945 256.426 162.321 256.18 161.829 255.688C161.349 255.184 161.109 254.554 161.109 253.798C161.109 253.294 161.217 252.844 161.433 252.448C161.661 252.04 161.973 251.722 162.369 251.494C162.765 251.266 163.209 251.152 163.701 251.152C164.445 251.152 165.051 251.404 165.519 251.908C165.999 252.4 166.239 253.03 166.239 253.798C166.239 254.566 165.999 255.196 165.519 255.688C165.051 256.18 164.445 256.426 163.701 256.426Z" fill="#DCF2ED"/>
<path d="M41.016 95H51.448L64.76 77.72C66.424 75.544 67.6827 73.6027 68.536 71.896C69.432 70.1467 70.0293 68.504 70.328 66.968C70.6693 65.432 70.84 63.896 70.84 62.36C70.84 59.3307 70.1147 56.6213 68.664 54.232C67.256 51.8427 65.3147 49.9653 62.84 48.6C60.3653 47.2347 57.5067 46.552 54.264 46.552C51.064 46.552 48.2053 47.2347 45.688 48.6C43.2133 49.9653 41.2507 51.864 39.8 54.296C38.392 56.6853 37.688 59.416 37.688 62.488C37.688 65.3893 38.328 67.992 39.608 70.296C40.9307 72.5573 42.7227 74.3493 44.984 75.672C47.2453 76.9947 49.8267 77.656 52.728 77.656C53.4107 77.656 54.0293 77.6133 54.584 77.528L41.016 95ZM54.264 70.36C52.0453 70.36 50.168 69.6347 48.632 68.184C47.1387 66.6907 46.392 64.7707 46.392 62.424C46.392 60.0347 47.1387 58.0933 48.632 56.6C50.168 55.1067 52.0453 54.36 54.264 54.36C56.4827 54.36 58.3387 55.1067 59.832 56.6C61.3253 58.0933 62.072 60.0347 62.072 62.424C62.072 64.7707 61.3253 66.6907 59.832 68.184C58.3387 69.6347 56.4827 70.36 54.264 70.36ZM96.7545 95H105.331V84.504H112.307V77.208H105.331V47.32H96.2425L74.8665 77.208V84.504H96.7545V95ZM96.7545 77.208H83.4425L96.7545 58.072V77.208ZM131.718 71.512C134.064 71.512 136.176 70.9573 138.054 69.848C139.931 68.696 141.424 67.1813 142.534 65.304C143.643 63.4267 144.198 61.336 144.198 59.032C144.198 56.728 143.643 54.6373 142.534 52.76C141.424 50.84 139.931 49.3253 138.054 48.216C136.176 47.1067 134.064 46.552 131.718 46.552C129.371 46.552 127.238 47.1067 125.318 48.216C123.398 49.3253 121.883 50.84 120.774 52.76C119.664 54.6373 119.11 56.728 119.11 59.032C119.11 61.336 119.664 63.4267 120.774 65.304C121.883 67.1813 123.398 68.696 125.318 69.848C127.238 70.9573 129.371 71.512 131.718 71.512ZM124.23 95H133.19L171.846 47.32H162.886L124.23 95ZM131.718 65.048C129.883 65.048 128.432 64.4293 127.366 63.192C126.342 61.9547 125.83 60.568 125.83 59.032C125.83 57.496 126.342 56.1093 127.366 54.872C128.432 53.592 129.883 52.952 131.718 52.952C133.552 52.952 134.96 53.592 135.942 54.872C136.966 56.1093 137.478 57.496 137.478 59.032C137.478 60.568 136.966 61.9547 135.942 63.192C134.96 64.4293 133.552 65.048 131.718 65.048ZM164.166 95.768C166.512 95.768 168.624 95.2133 170.502 94.104C172.422 92.952 173.936 91.4373 175.046 89.56C176.155 87.6827 176.71 85.592 176.71 83.288C176.71 80.984 176.155 78.8933 175.046 77.016C173.936 75.096 172.422 73.5813 170.502 72.472C168.624 71.3627 166.512 70.808 164.166 70.808C161.819 70.808 159.686 71.3627 157.766 72.472C155.888 73.5813 154.395 75.096 153.286 77.016C152.176 78.8933 151.622 80.984 151.622 83.288C151.622 85.592 152.176 87.6827 153.286 89.56C154.395 91.4373 155.888 92.952 157.766 94.104C159.686 95.2133 161.819 95.768 164.166 95.768ZM164.166 89.304C162.331 89.304 160.902 88.6853 159.878 87.448C158.854 86.2107 158.342 84.824 158.342 83.288C158.342 81.752 158.854 80.3653 159.878 79.128C160.902 77.848 162.331 77.208 164.166 77.208C166 77.208 167.43 77.848 168.454 79.128C169.478 80.3653 169.99 81.752 169.99 83.288C169.99 84.824 169.478 86.2107 168.454 87.448C167.43 88.6853 166 89.304 164.166 89.304Z" fill="#DCF2ED"/>
<path d="M42.024 294.192C42.856 294.192 43.6293 294.043 44.344 293.744C45.0693 293.435 45.704 293.008 46.248 292.464C46.792 291.909 47.2187 291.259 47.528 290.512C47.8373 289.755 47.992 288.928 47.992 288.032C47.992 287.136 47.8373 286.315 47.528 285.568C47.2187 284.821 46.792 284.176 46.248 283.632C45.704 283.077 45.0693 282.651 44.344 282.352C43.6293 282.043 42.856 281.888 42.024 281.888C41.192 281.888 40.4133 282.037 39.688 282.336C38.9733 282.635 38.344 283.061 37.8 283.616C37.256 284.16 36.8293 284.811 36.52 285.568C36.2107 286.315 36.056 287.136 36.056 288.032C36.056 288.928 36.2107 289.755 36.52 290.512C36.8293 291.259 37.256 291.909 37.8 292.464C38.344 293.008 38.9733 293.435 39.688 293.744C40.4133 294.043 41.192 294.192 42.024 294.192ZM42.024 292.992C41.1067 292.992 40.296 292.768 39.592 292.32C38.888 291.872 38.3333 291.275 37.928 290.528C37.5333 289.771 37.336 288.939 37.336 288.032C37.336 287.36 37.448 286.725 37.672 286.128C37.9067 285.531 38.232 285.003 38.648 284.544C39.064 284.085 39.5547 283.728 40.12 283.472C40.696 283.216 41.3307 283.088 42.024 283.088C42.7173 283.088 43.3467 283.216 43.912 283.472C44.488 283.728 44.984 284.085 45.4 284.544C45.816 285.003 46.136 285.531 46.36 286.128C46.5947 286.725 46.712 287.36 46.712 288.032C46.712 288.939 46.5093 289.771 46.104 290.528C45.7093 291.275 45.16 291.872 44.456 292.32C43.752 292.768 42.9413 292.992 42.024 292.992ZM50.2789 294H51.4789V288.896C51.4789 288.128 51.6922 287.525 52.1189 287.088C52.5455 286.651 53.0842 286.432 53.7349 286.432C54.3962 286.432 54.9295 286.651 55.3349 287.088C55.7509 287.515 55.9589 288.117 55.9589 288.896V294H57.1589V288.432C57.1589 287.824 57.0149 287.28 56.7269 286.8C56.4495 286.309 56.0655 285.925 55.5749 285.648C55.0949 285.371 54.5509 285.232 53.9429 285.232C53.4095 285.232 52.9295 285.344 52.5029 285.568C52.0762 285.792 51.7349 286.096 51.4789 286.48V285.424H50.2789V294ZM65.4495 294.096C65.5455 294.096 65.6735 294.091 65.8335 294.08C65.9935 294.069 66.1375 294.048 66.2655 294.016V292.928C66.1802 292.939 66.0788 292.949 65.9615 292.96C65.8442 292.971 65.7428 292.976 65.6575 292.976C65.1242 292.976 64.7562 292.837 64.5535 292.56C64.3508 292.283 64.2495 291.931 64.2495 291.504V286.624H66.1375V285.424H64.2495V283.44H63.0495V284.16C63.0495 284.523 62.9428 284.827 62.7295 285.072C62.5162 285.307 62.2282 285.424 61.8655 285.424H61.4655V286.624H63.0495V291.504C63.0495 292.336 63.2575 292.976 63.6735 293.424C64.0895 293.872 64.6815 294.096 65.4495 294.096ZM68.3726 294H69.5726V288.896C69.5726 288.128 69.786 287.525 70.2126 287.088C70.65 286.651 71.1886 286.432 71.8286 286.432C72.4686 286.432 72.9966 286.651 73.4126 287.088C73.8393 287.515 74.0526 288.117 74.0526 288.896V294H75.2526V288.432C75.2526 287.824 75.1086 287.28 74.8206 286.8C74.5433 286.309 74.1593 285.925 73.6686 285.648C73.1886 285.371 72.6446 285.232 72.0366 285.232C71.5033 285.232 71.0233 285.344 70.5966 285.568C70.17 285.792 69.8286 286.096 69.5726 286.48V282.08H68.3726V294ZM81.4485 294.192C82.0352 294.192 82.5685 294.096 83.0485 293.904C83.5392 293.701 83.9605 293.44 84.3125 293.12C84.6645 292.789 84.9258 292.432 85.0965 292.048L84.0725 291.504C83.8058 291.952 83.4592 292.325 83.0325 292.624C82.6058 292.923 82.0778 293.072 81.4485 293.072C80.9365 293.072 80.4565 292.949 80.0085 292.704C79.5605 292.459 79.1925 292.117 78.9045 291.68C78.6272 291.232 78.4778 290.699 78.4565 290.08H85.2085C85.2298 289.941 85.2458 289.808 85.2565 289.68C85.2672 289.541 85.2725 289.419 85.2725 289.312C85.2725 288.8 85.1818 288.304 85.0005 287.824C84.8192 287.333 84.5578 286.896 84.2165 286.512C83.8752 286.117 83.4592 285.808 82.9685 285.584C82.4885 285.349 81.9392 285.232 81.3205 285.232C80.5418 285.232 79.8378 285.424 79.2085 285.808C78.5898 286.192 78.0992 286.72 77.7365 287.392C77.3738 288.053 77.1925 288.816 77.1925 289.68C77.1925 290.544 77.3792 291.317 77.7525 292C78.1258 292.683 78.6325 293.221 79.2725 293.616C79.9232 294 80.6485 294.192 81.4485 294.192ZM81.3205 286.352C81.8005 286.352 82.2378 286.464 82.6325 286.688C83.0378 286.912 83.3578 287.221 83.5925 287.616C83.8378 288 83.9658 288.448 83.9765 288.96H78.4885C78.5525 288.427 78.7178 287.968 78.9845 287.584C79.2618 287.189 79.6032 286.885 80.0085 286.672C80.4138 286.459 80.8512 286.352 81.3205 286.352ZM90.107 294H91.307V288.896C91.307 288.128 91.515 287.525 91.931 287.088C92.347 286.651 92.8643 286.432 93.483 286.432C94.1017 286.432 94.6137 286.651 95.019 287.088C95.4243 287.515 95.627 288.117 95.627 288.896V294H96.827V288.896C96.827 288.128 97.035 287.525 97.451 287.088C97.867 286.651 98.3843 286.432 99.003 286.432C99.6217 286.432 100.134 286.651 100.539 287.088C100.944 287.515 101.147 288.117 101.147 288.896V294H102.347V288.432C102.347 287.824 102.198 287.28 101.899 286.8C101.611 286.309 101.222 285.925 100.731 285.648C100.251 285.371 99.723 285.232 99.147 285.232C98.571 285.232 98.0377 285.371 97.547 285.648C97.067 285.925 96.699 286.331 96.443 286.864C96.1763 286.373 95.7977 285.979 95.307 285.68C94.8163 285.381 94.2777 285.232 93.691 285.232C93.2003 285.232 92.7417 285.344 92.315 285.568C91.899 285.781 91.563 286.085 91.307 286.48V285.424H90.107V294ZM108.654 294.192C109.454 294.192 110.18 294 110.83 293.616C111.492 293.232 112.02 292.704 112.414 292.032C112.809 291.349 113.006 290.571 113.006 289.696C113.006 288.832 112.814 288.064 112.43 287.392C112.057 286.72 111.54 286.192 110.878 285.808C110.228 285.424 109.486 285.232 108.654 285.232C107.822 285.232 107.076 285.429 106.414 285.824C105.764 286.208 105.246 286.736 104.862 287.408C104.478 288.08 104.286 288.843 104.286 289.696C104.286 290.56 104.478 291.333 104.862 292.016C105.257 292.688 105.785 293.221 106.446 293.616C107.108 294 107.844 294.192 108.654 294.192ZM108.654 292.992C108.078 292.992 107.556 292.848 107.086 292.56C106.628 292.272 106.26 291.877 105.982 291.376C105.705 290.875 105.566 290.315 105.566 289.696C105.566 289.077 105.705 288.523 105.982 288.032C106.26 287.541 106.628 287.152 107.086 286.864C107.556 286.576 108.078 286.432 108.654 286.432C109.23 286.432 109.748 286.576 110.206 286.864C110.676 287.152 111.044 287.541 111.31 288.032C111.588 288.523 111.726 289.077 111.726 289.696C111.726 290.315 111.588 290.875 111.31 291.376C111.044 291.877 110.676 292.272 110.206 292.56C109.748 292.848 109.23 292.992 108.654 292.992ZM118.099 294.192C118.696 294.192 119.224 294.091 119.683 293.888C120.141 293.675 120.499 293.381 120.755 293.008C121.021 292.635 121.155 292.213 121.155 291.744C121.155 291.168 120.957 290.667 120.563 290.24C120.179 289.813 119.64 289.499 118.947 289.296L117.523 288.88C117.373 288.837 117.197 288.773 116.995 288.688C116.803 288.603 116.632 288.475 116.483 288.304C116.333 288.133 116.259 287.904 116.259 287.616C116.259 287.243 116.403 286.933 116.691 286.688C116.979 286.443 117.363 286.32 117.843 286.32C118.333 286.32 118.776 286.459 119.171 286.736C119.576 287.003 119.885 287.376 120.099 287.856L121.123 287.376C120.877 286.704 120.456 286.181 119.859 285.808C119.272 285.424 118.616 285.232 117.891 285.232C117.357 285.232 116.872 285.333 116.435 285.536C115.997 285.739 115.651 286.027 115.395 286.4C115.139 286.773 115.011 287.211 115.011 287.712C115.011 288.245 115.187 288.715 115.539 289.12C115.891 289.525 116.461 289.84 117.251 290.064L118.483 290.416C118.653 290.459 118.851 290.528 119.075 290.624C119.299 290.72 119.496 290.859 119.667 291.04C119.837 291.211 119.923 291.445 119.923 291.744C119.923 292.149 119.747 292.48 119.395 292.736C119.043 292.981 118.611 293.104 118.099 293.104C117.565 293.104 117.075 292.949 116.627 292.64C116.189 292.331 115.848 291.915 115.603 291.392L114.595 291.872C114.872 292.587 115.32 293.152 115.939 293.568C116.557 293.984 117.277 294.192 118.099 294.192ZM126.543 294.096C126.639 294.096 126.767 294.091 126.927 294.08C127.087 294.069 127.231 294.048 127.359 294.016V292.928C127.274 292.939 127.173 292.949 127.055 292.96C126.938 292.971 126.837 292.976 126.751 292.976C126.218 292.976 125.85 292.837 125.647 292.56C125.445 292.283 125.343 291.931 125.343 291.504V286.624H127.231V285.424H125.343V283.44H124.143V284.16C124.143 284.523 124.037 284.827 123.823 285.072C123.61 285.307 123.322 285.424 122.959 285.424H122.559V286.624H124.143V291.504C124.143 292.336 124.351 292.976 124.767 293.424C125.183 293.872 125.775 294.096 126.543 294.096ZM132.185 297.2H133.385V292.608C133.705 293.109 134.142 293.499 134.697 293.776C135.252 294.053 135.86 294.192 136.521 294.192C137.332 294.192 138.052 294 138.681 293.616C139.321 293.221 139.822 292.688 140.185 292.016C140.558 291.333 140.745 290.565 140.745 289.712C140.745 288.848 140.558 288.08 140.185 287.408C139.822 286.736 139.321 286.208 138.681 285.824C138.052 285.429 137.332 285.232 136.521 285.232C135.849 285.232 135.246 285.365 134.713 285.632C134.18 285.899 133.737 286.261 133.385 286.72V285.424H132.185V297.2ZM136.457 292.992C135.881 292.992 135.358 292.848 134.889 292.56C134.43 292.272 134.062 291.883 133.785 291.392C133.518 290.891 133.385 290.331 133.385 289.712C133.385 289.093 133.518 288.539 133.785 288.048C134.062 287.547 134.43 287.152 134.889 286.864C135.358 286.576 135.881 286.432 136.457 286.432C137.033 286.432 137.545 286.576 137.993 286.864C138.452 287.152 138.809 287.541 139.065 288.032C139.332 288.523 139.465 289.083 139.465 289.712C139.465 290.331 139.332 290.891 139.065 291.392C138.809 291.883 138.452 292.272 137.993 292.56C137.545 292.848 137.033 292.992 136.457 292.992ZM146.873 294.192C147.673 294.192 148.398 294 149.049 293.616C149.71 293.232 150.238 292.704 150.633 292.032C151.028 291.349 151.225 290.571 151.225 289.696C151.225 288.832 151.033 288.064 150.649 287.392C150.276 286.72 149.758 286.192 149.097 285.808C148.446 285.424 147.705 285.232 146.873 285.232C146.041 285.232 145.294 285.429 144.633 285.824C143.982 286.208 143.465 286.736 143.081 287.408C142.697 288.08 142.505 288.843 142.505 289.696C142.505 290.56 142.697 291.333 143.081 292.016C143.476 292.688 144.004 293.221 144.665 293.616C145.326 294 146.062 294.192 146.873 294.192ZM146.873 292.992C146.297 292.992 145.774 292.848 145.305 292.56C144.846 292.272 144.478 291.877 144.201 291.376C143.924 290.875 143.785 290.315 143.785 289.696C143.785 289.077 143.924 288.523 144.201 288.032C144.478 287.541 144.846 287.152 145.305 286.864C145.774 286.576 146.297 286.432 146.873 286.432C147.449 286.432 147.966 286.576 148.425 286.864C148.894 287.152 149.262 287.541 149.529 288.032C149.806 288.523 149.945 289.077 149.945 289.696C149.945 290.315 149.806 290.875 149.529 291.376C149.262 291.877 148.894 292.272 148.425 292.56C147.966 292.848 147.449 292.992 146.873 292.992ZM153.341 297.2H154.541V292.608C154.861 293.109 155.299 293.499 155.853 293.776C156.408 294.053 157.016 294.192 157.677 294.192C158.488 294.192 159.208 294 159.837 293.616C160.477 293.221 160.979 292.688 161.341 292.016C161.715 291.333 161.901 290.565 161.901 289.712C161.901 288.848 161.715 288.08 161.341 287.408C160.979 286.736 160.477 286.208 159.837 285.824C159.208 285.429 158.488 285.232 157.677 285.232C157.005 285.232 156.403 285.365 155.869 285.632C155.336 285.899 154.893 286.261 154.541 286.72V285.424H153.341V297.2ZM157.613 292.992C157.037 292.992 156.515 292.848 156.045 292.56C155.587 292.272 155.219 291.883 154.941 291.392C154.675 290.891 154.541 290.331 154.541 289.712C154.541 289.093 154.675 288.539 154.941 288.048C155.219 287.547 155.587 287.152 156.045 286.864C156.515 286.576 157.037 286.432 157.613 286.432C158.189 286.432 158.701 286.576 159.149 286.864C159.608 287.152 159.965 287.541 160.221 288.032C160.488 288.523 160.621 289.083 160.621 289.712C160.621 290.331 160.488 290.891 160.221 291.392C159.965 291.883 159.608 292.272 159.149 292.56C158.701 292.848 158.189 292.992 157.613 292.992ZM167.053 294.192C167.587 294.192 168.067 294.08 168.493 293.856C168.92 293.632 169.261 293.328 169.517 292.944V294H170.717V285.424H169.517V290.528C169.517 291.296 169.304 291.899 168.877 292.336C168.461 292.773 167.923 292.992 167.261 292.992C166.611 292.992 166.077 292.784 165.661 292.368C165.245 291.941 165.037 291.381 165.037 290.688V285.424H163.837V290.832C163.837 291.493 163.976 292.08 164.253 292.592C164.541 293.093 164.931 293.488 165.421 293.776C165.912 294.053 166.456 294.192 167.053 294.192ZM173.185 294H174.385V282.08H173.185V294ZM179.321 294.192C179.983 294.192 180.58 294.059 181.113 293.792C181.647 293.525 182.052 293.184 182.329 292.768V294H183.529V288.112C183.529 287.547 183.391 287.051 183.113 286.624C182.847 286.187 182.468 285.845 181.977 285.6C181.497 285.355 180.943 285.232 180.313 285.232C179.833 285.232 179.369 285.323 178.921 285.504C178.473 285.675 178.073 285.909 177.721 286.208C177.38 286.507 177.129 286.837 176.969 287.2L178.057 287.792C178.249 287.376 178.543 287.04 178.937 286.784C179.332 286.517 179.791 286.384 180.313 286.384C180.911 286.384 181.396 286.544 181.769 286.864C182.143 287.184 182.329 287.6 182.329 288.112V288.56L179.225 289.072C178.276 289.232 177.583 289.557 177.145 290.048C176.708 290.539 176.489 291.115 176.489 291.776C176.489 292.245 176.612 292.661 176.857 293.024C177.103 293.387 177.439 293.675 177.865 293.888C178.292 294.091 178.777 294.192 179.321 294.192ZM177.769 291.728C177.769 291.333 177.903 290.992 178.169 290.704C178.447 290.416 178.895 290.219 179.513 290.112L182.329 289.648V290.288C182.329 290.811 182.207 291.285 181.961 291.712C181.716 292.139 181.375 292.48 180.937 292.736C180.5 292.981 179.988 293.104 179.401 293.104C178.921 293.104 178.527 292.971 178.217 292.704C177.919 292.437 177.769 292.112 177.769 291.728ZM185.998 294H187.198V288.72C187.198 288.016 187.384 287.472 187.758 287.088C188.131 286.704 188.627 286.512 189.246 286.512H189.998V285.312H189.454C188.931 285.312 188.478 285.403 188.094 285.584C187.72 285.765 187.422 286.021 187.198 286.352V285.424H185.998V294ZM197.099 294.192C197.696 294.192 198.224 294.091 198.683 293.888C199.141 293.675 199.499 293.381 199.755 293.008C200.021 292.635 200.155 292.213 200.155 291.744C200.155 291.168 199.957 290.667 199.563 290.24C199.179 289.813 198.64 289.499 197.947 289.296L196.523 288.88C196.373 288.837 196.197 288.773 195.995 288.688C195.803 288.603 195.632 288.475 195.483 288.304C195.333 288.133 195.259 287.904 195.259 287.616C195.259 287.243 195.403 286.933 195.691 286.688C195.979 286.443 196.363 286.32 196.843 286.32C197.333 286.32 197.776 286.459 198.171 286.736C198.576 287.003 198.885 287.376 199.099 287.856L200.123 287.376C199.877 286.704 199.456 286.181 198.859 285.808C198.272 285.424 197.616 285.232 196.891 285.232C196.357 285.232 195.872 285.333 195.435 285.536C194.997 285.739 194.651 286.027 194.395 286.4C194.139 286.773 194.011 287.211 194.011 287.712C194.011 288.245 194.187 288.715 194.539 289.12C194.891 289.525 195.461 289.84 196.251 290.064L197.483 290.416C197.653 290.459 197.851 290.528 198.075 290.624C198.299 290.72 198.496 290.859 198.667 291.04C198.837 291.211 198.923 291.445 198.923 291.744C198.923 292.149 198.747 292.48 198.395 292.736C198.043 292.981 197.611 293.104 197.099 293.104C196.565 293.104 196.075 292.949 195.627 292.64C195.189 292.331 194.848 291.915 194.603 291.392L193.595 291.872C193.872 292.587 194.32 293.152 194.939 293.568C195.557 293.984 196.277 294.192 197.099 294.192ZM202.263 283.84H203.463V282.08H202.263V283.84ZM202.263 294H203.463V285.424H202.263V294ZM209.2 294.096C209.296 294.096 209.424 294.091 209.584 294.08C209.744 294.069 209.888 294.048 210.016 294.016V292.928C209.93 292.939 209.829 292.949 209.712 292.96C209.594 292.971 209.493 292.976 209.408 292.976C208.874 292.976 208.506 292.837 208.304 292.56C208.101 292.283 208 291.931 208 291.504V286.624H209.888V285.424H208V283.44H206.799V284.16C206.799 284.523 206.693 284.827 206.48 285.072C206.266 285.307 205.978 285.424 205.616 285.424H205.215V286.624H206.799V291.504C206.799 292.336 207.008 292.976 207.424 293.424C207.84 293.872 208.432 294.096 209.2 294.096ZM215.714 294.192C216.301 294.192 216.834 294.096 217.314 293.904C217.805 293.701 218.226 293.44 218.578 293.12C218.93 292.789 219.191 292.432 219.362 292.048L218.338 291.504C218.071 291.952 217.725 292.325 217.298 292.624C216.871 292.923 216.343 293.072 215.714 293.072C215.202 293.072 214.722 292.949 214.274 292.704C213.826 292.459 213.458 292.117 213.17 291.68C212.893 291.232 212.743 290.699 212.722 290.08H219.474C219.495 289.941 219.511 289.808 219.522 289.68C219.533 289.541 219.538 289.419 219.538 289.312C219.538 288.8 219.447 288.304 219.266 287.824C219.085 287.333 218.823 286.896 218.482 286.512C218.141 286.117 217.725 285.808 217.234 285.584C216.754 285.349 216.205 285.232 215.586 285.232C214.807 285.232 214.103 285.424 213.474 285.808C212.855 286.192 212.365 286.72 212.002 287.392C211.639 288.053 211.458 288.816 211.458 289.68C211.458 290.544 211.645 291.317 212.018 292C212.391 292.683 212.898 293.221 213.538 293.616C214.189 294 214.914 294.192 215.714 294.192ZM215.586 286.352C216.066 286.352 216.503 286.464 216.898 286.688C217.303 286.912 217.623 287.221 217.858 287.616C218.103 288 218.231 288.448 218.242 288.96H212.754C212.818 288.427 212.983 287.968 213.25 287.584C213.527 287.189 213.869 286.885 214.274 286.672C214.679 286.459 215.117 286.352 215.586 286.352ZM224.63 294.192C225.227 294.192 225.755 294.091 226.214 293.888C226.673 293.675 227.03 293.381 227.286 293.008C227.553 292.635 227.686 292.213 227.686 291.744C227.686 291.168 227.489 290.667 227.094 290.24C226.71 289.813 226.171 289.499 225.478 289.296L224.054 288.88C223.905 288.837 223.729 288.773 223.526 288.688C223.334 288.603 223.163 288.475 223.014 288.304C222.865 288.133 222.79 287.904 222.79 287.616C222.79 287.243 222.934 286.933 223.222 286.688C223.51 286.443 223.894 286.32 224.374 286.32C224.865 286.32 225.307 286.459 225.702 286.736C226.107 287.003 226.417 287.376 226.63 287.856L227.654 287.376C227.409 286.704 226.987 286.181 226.39 285.808C225.803 285.424 225.147 285.232 224.422 285.232C223.889 285.232 223.403 285.333 222.966 285.536C222.529 285.739 222.182 286.027 221.926 286.4C221.67 286.773 221.542 287.211 221.542 287.712C221.542 288.245 221.718 288.715 222.07 289.12C222.422 289.525 222.993 289.84 223.782 290.064L225.014 290.416C225.185 290.459 225.382 290.528 225.606 290.624C225.83 290.72 226.027 290.859 226.198 291.04C226.369 291.211 226.454 291.445 226.454 291.744C226.454 292.149 226.278 292.48 225.926 292.736C225.574 292.981 225.142 293.104 224.63 293.104C224.097 293.104 223.606 292.949 223.158 292.64C222.721 292.331 222.379 291.915 222.134 291.392L221.126 291.872C221.403 292.587 221.851 293.152 222.47 293.568C223.089 293.984 223.809 294.192 224.63 294.192Z" fill="#DCF2ED"/>
</svg>
