<svg width="203" height="22" viewBox="0 0 203 22" fill="none" xmlns="http://www.w3.org/2000/svg">
<g opacity="0.3" clip-path="url(#clip0_4_321)">
<path d="M202.38 1.89008V21.1082L189.199 7.33105V19.985H186.453V0.667114L199.659 14.4692V1.89008H202.38Z" fill="#072125"/>
<path d="M171.923 1.51562C171.923 1.51562 169.252 1.54058 167.105 2.81347C167.105 2.81347 164.958 4.0614 163.71 6.20783C163.71 6.20783 162.437 8.32931 162.412 10.9999C162.412 10.9999 162.437 13.6455 163.685 15.742C163.685 15.742 164.958 17.8385 167.08 19.0615C167.08 19.0615 169.227 20.3094 171.923 20.3344C171.923 20.3344 174.545 20.3094 176.667 19.0365C176.667 19.0365 178.789 17.7886 180.037 15.6671C180.037 15.6671 181.31 13.5456 181.335 10.925C181.335 10.925 181.31 8.30435 180.037 6.18287C180.037 6.18287 178.789 4.0614 176.667 2.81347C176.667 2.81347 174.545 1.54058 171.923 1.51562ZM171.898 4.08636C171.898 4.08636 173.821 4.11131 175.319 5.00982C175.319 5.00982 176.816 5.90833 177.69 7.4308C177.69 7.4308 178.589 8.97823 178.589 10.95C178.589 10.95 178.564 12.8468 177.69 14.3942C177.69 14.3942 176.791 15.9167 175.269 16.8152C175.269 16.8152 173.771 17.7387 171.898 17.7387C171.898 17.7387 170.001 17.7137 168.478 16.8402C168.478 16.8402 166.956 15.9417 166.057 14.4192C166.057 14.4192 165.183 12.8718 165.158 10.95C165.158 10.95 165.183 9.00319 166.057 7.45576C166.057 7.45576 166.931 5.90833 168.453 5.00982C168.453 5.00982 169.976 4.11131 171.898 4.08636Z" fill="#072125"/>
<path d="M155.772 4.43584V19.985H153.026V4.43584H148.882V1.86511H159.941V4.43584H155.772Z" fill="#072125"/>
<path d="M146.31 4.43584H142.141V19.985H139.395V4.43584H135.251V1.86511H146.31V4.43584Z" fill="#072125"/>
<path d="M130.559 1.86511V19.985H127.812V1.86511H130.559Z" fill="#072125"/>
<path d="M121.422 1.86511V13.5208C121.422 13.5208 121.397 15.4925 120.548 17.015C120.548 17.015 119.674 18.5374 118.176 19.4359C118.176 19.4359 116.679 20.3095 114.756 20.3344C114.756 20.3344 112.809 20.3095 111.286 19.4359C111.286 19.4359 109.788 18.5374 108.915 17.015C108.915 17.015 108.066 15.4925 108.041 13.5208V1.86511H110.787V12.772C110.787 12.772 110.787 13.9451 110.912 14.6439C110.912 14.6439 111.037 15.3427 111.361 15.8918C111.361 15.8918 111.861 16.7654 112.759 17.2396C112.759 17.2396 113.658 17.7387 114.756 17.7387C114.756 17.7387 115.83 17.7387 116.728 17.2396C116.728 17.2396 117.602 16.7654 118.126 15.8918C118.126 15.8918 118.451 15.3427 118.576 14.6439L118.676 12.772V1.86511H121.422Z" fill="#072125"/>
<path d="M87.6943 1.86511H90.69L95.6829 14.4193L100.751 1.86511H103.746L95.6329 21.3328L87.6943 1.86511Z" fill="#072125"/>
<path d="M71.7682 4.46086C71.7682 4.46086 71.169 4.08648 70.2454 4.08648C70.2454 4.08648 69.097 4.11144 68.3731 4.7354C68.3731 4.7354 67.6491 5.35936 67.6241 6.33275C67.6241 6.33275 67.5992 7.25621 68.4729 7.85522L68.9223 8.15472L69.6213 8.47918L71.3937 9.20298C71.3937 9.20298 73.5656 10.1015 74.5891 11.3744C74.5891 11.3744 75.6376 12.6722 75.6127 14.4692C75.6127 14.4692 75.6127 16.1664 74.8637 17.4892C74.8637 17.4892 74.1398 18.7871 72.8416 19.5608C72.8416 19.5608 71.5435 20.3095 69.8959 20.3345C69.8959 20.3345 67.4494 20.3095 65.9266 18.9368C65.9266 18.9368 64.4038 17.5391 64.0293 14.9934L66.8003 14.3444L67 15.5674C67 15.5674 67.1248 16.0167 67.3246 16.3411C67.3246 16.3411 67.6741 16.99 68.3731 17.3644C68.3731 17.3644 69.0721 17.7388 69.9208 17.7388C69.9208 17.7388 71.219 17.7138 72.0428 16.8902C72.0428 16.8902 72.8666 16.0666 72.8916 14.7438C72.8916 14.7438 72.8666 13.1963 71.6434 12.3478C71.6434 12.3478 70.9943 11.9235 70.2953 11.6489L68.5728 10.9002C68.5728 10.9002 64.8281 9.35273 64.8531 6.33275C64.8531 6.33275 64.8531 4.93507 65.5771 3.86185C65.5771 3.86185 66.2761 2.78863 67.4993 2.16467C67.4993 2.16467 68.7226 1.54071 70.2703 1.51575C70.2703 1.51575 71.893 1.51575 73.0663 2.23955C73.0663 2.23955 74.2646 2.96334 75.1633 4.56069L72.9665 5.88349C72.9665 5.88349 72.3673 4.86019 71.7682 4.46086Z" fill="#072125"/>
<path d="M58.5615 1.86511V19.985H55.8154V1.86511H58.5615Z" fill="#072125"/>
<path d="M46.6786 1.86511H49.4247V13.5208C49.4247 13.5208 49.3997 15.4925 48.551 17.015C48.551 17.015 47.6772 18.5374 46.1794 19.4359C46.1794 19.4359 44.6815 20.3095 42.7593 20.3344C42.7593 20.3344 40.8121 20.3095 39.2893 19.4359C39.2893 19.4359 37.7914 18.5374 36.9177 17.015C36.9177 17.015 36.0689 15.4925 36.0439 13.5208V1.86511H38.79V12.772C38.79 12.772 38.79 13.9451 38.9148 14.6439C38.9148 14.6439 39.0396 15.3427 39.3642 15.8918C39.3642 15.8918 39.8635 16.7654 40.7622 17.2396C40.7622 17.2396 41.6609 17.7387 42.7593 17.7387C42.7593 17.7387 43.8327 17.7387 44.7315 17.2396C44.7315 17.2396 45.6052 16.7654 46.1294 15.8918C46.1294 15.8918 46.454 15.3427 46.5788 14.6439L46.6786 12.772V1.86511Z" fill="#072125"/>
<path d="M21.1656 1.51562C21.1656 1.51562 18.4945 1.54058 16.3475 2.81347C16.3475 2.81347 14.2006 4.0614 12.9524 6.20783C12.9524 6.20783 11.6793 8.32931 11.6543 10.9999C11.6543 10.9999 11.6793 13.6455 12.9275 15.742C12.9275 15.742 14.2006 17.8385 16.3226 19.0615C16.3226 19.0615 18.4695 20.3094 21.1656 20.3344C21.1656 20.3344 23.7868 20.3094 25.9088 19.0365C25.9088 19.0365 28.0307 17.7886 29.2789 15.6671C29.2789 15.6671 30.5521 13.5456 30.5771 10.925C30.5771 10.925 30.5521 8.30435 29.2789 6.18287C29.2789 6.18287 28.0307 4.0614 25.9088 2.81347C25.9088 2.81347 23.7868 1.54058 21.1656 1.51562ZM21.1406 4.08636C21.1406 4.08636 23.0629 4.11131 24.5607 5.00982C24.5607 5.00982 26.0586 5.90833 26.9323 7.4308C26.9323 7.4308 27.8061 8.97823 27.831 10.95C27.831 10.95 27.8061 12.8468 26.9323 14.3942C26.9323 14.3942 26.0336 15.9167 24.5108 16.8152C24.5108 16.8152 23.013 17.7387 21.1406 17.7387C21.1406 17.7387 19.2434 17.7137 17.7206 16.8402C17.7206 16.8402 16.1978 15.9417 15.2991 14.4192C15.2991 14.4192 14.4253 12.8718 14.4003 10.95C14.4003 10.95 14.4253 9.00319 15.2991 7.45576C15.2991 7.45576 16.1728 5.90833 17.6956 5.00982C17.6956 5.00982 19.2184 4.11131 21.1406 4.08636Z" fill="#072125"/>
<path d="M3.36617 1.86511V17.3893H8.68352V19.985H0.620117V1.86511H3.36617Z" fill="#072125"/>
</g>
<defs>
<clipPath id="clip0_4_321">
<rect width="203" height="22" fill="white"/>
</clipPath>
</defs>
</svg>
