<svg width="161" height="74" viewBox="0 0 161 74" fill="none" xmlns="http://www.w3.org/2000/svg">
<g opacity="0.3">
<path d="M57.5741 49.3907L59.1665 45.6969C60.8859 46.98 63.1663 47.646 65.4216 47.646C67.0919 47.646 68.1384 47.0051 68.1384 46.0293C68.1133 43.3151 58.164 45.4411 58.091 38.6218C58.0659 35.1626 61.1412 32.4923 65.4996 32.4923C68.0894 32.4923 70.678 33.1345 72.5257 34.5994L71.0377 38.3672C69.3472 37.2885 67.2441 36.5197 65.2442 36.5197C63.8833 36.5197 62.989 37.1618 62.989 37.9796C63.0141 40.6449 73.0364 39.1849 73.1395 45.6969C73.1395 49.2339 70.1434 51.7223 65.8341 51.7223C62.6795 51.7223 59.7803 50.9785 57.5741 49.3894V49.3907ZM118.578 44.3637C118.081 45.2475 117.304 45.9417 116.368 46.3374C115.433 46.7331 114.392 46.8079 113.409 46.55C112.427 46.2921 111.558 45.7162 110.939 44.9125C110.32 44.1089 109.986 43.1231 109.99 42.1098C109.988 41.5077 110.105 40.9111 110.335 40.3543C110.565 39.7975 110.903 39.2915 111.329 38.865C111.756 38.4386 112.262 38.1003 112.82 37.8693C113.378 37.6384 113.976 37.5195 114.579 37.5193C116.294 37.5193 117.783 38.47 118.579 39.8522L122.961 37.4165C121.32 34.4966 118.165 32.4923 114.579 32.4923C109.268 32.4923 104.963 36.8044 104.963 42.1098C104.963 47.4152 109.268 51.7223 114.579 51.7223C116.291 51.726 117.972 51.2708 119.447 50.4046C120.921 49.5383 122.135 48.2927 122.961 46.7981L118.578 44.3649V44.3637ZM75.3457 24.5204H80.8348V51.3648H75.3457V24.5216V24.5204ZM125.119 24.5204V51.3648H130.601V43.3151L137.117 51.3648H144.143L135.859 41.8013L143.528 32.8799H136.807L130.601 40.2874V24.5216H125.117L125.119 24.5204ZM97.1411 44.4176C96.3462 45.7258 94.7047 46.6953 92.857 46.6953C92.2536 46.695 91.6563 46.5761 91.0991 46.3454C90.5419 46.1147 90.0357 45.7768 89.6096 45.3509C89.1834 44.925 88.8457 44.4196 88.6155 43.8635C88.3854 43.3073 88.2675 42.7114 88.2685 42.1098C88.2673 41.5079 88.3851 40.9117 88.6151 40.3552C88.8451 39.7987 89.1828 39.2929 89.6089 38.8666C90.035 38.4403 90.5412 38.1019 91.0985 37.8707C91.6558 37.6395 92.2534 37.5201 92.857 37.5193C94.7047 37.5193 96.3462 38.5428 97.1411 39.876V44.4176ZM97.1411 32.8786V35.061C96.243 33.5459 94.0117 32.4923 91.6784 32.4923C86.8585 32.4923 83.0649 36.7505 83.0649 42.081C83.0649 47.4165 86.8585 51.7223 91.6784 51.7223C94.0117 51.7223 96.243 50.6687 97.1411 49.1599V51.341H102.63V32.8786H97.1411ZM23.6534 44.3875C23.6534 46.2601 22.1402 47.7739 20.2674 47.7739C19.822 47.7736 19.3811 47.6857 18.9698 47.5153C18.5586 47.3448 18.1851 47.0952 17.8707 46.7807C17.5563 46.4661 17.3072 46.0928 17.1377 45.6822C16.9681 45.2716 16.8814 44.8316 16.8826 44.3875C16.8818 43.9438 16.9687 43.5043 17.1385 43.0942C17.3082 42.684 17.5574 42.3113 17.8718 41.9973C18.1862 41.6833 18.5596 41.4343 18.9707 41.2644C19.3818 41.0945 19.8224 41.0072 20.2674 41.0073H23.6534V44.3888V44.3875ZM25.3426 44.3875C25.3418 43.9437 25.4288 43.5041 25.5986 43.0939C25.7684 42.6836 26.0178 42.3109 26.3323 41.9969C26.6468 41.6829 27.0204 41.4338 27.4316 41.264C27.8428 41.0942 28.2836 41.007 28.7287 41.0073C29.1737 41.0072 29.6145 41.0946 30.0256 41.2645C30.4368 41.4345 30.8102 41.6836 31.1247 41.9977C31.4391 42.3119 31.6883 42.6847 31.8579 43.095C32.0276 43.5053 32.1144 43.945 32.1134 44.3888V52.8498C32.1144 53.2938 32.0276 53.7336 31.858 54.1441C31.6884 54.5547 31.4393 54.9278 31.1249 55.2422C30.8105 55.5566 30.4371 55.8061 30.0259 55.9765C29.6147 56.1468 29.1739 56.2347 28.7287 56.235C28.2832 56.2349 27.8422 56.1471 27.4308 55.9767C27.0194 55.8064 26.6457 55.5568 26.3312 55.2422C26.0167 54.9276 25.7675 54.5543 25.5978 54.1436C25.4282 53.7328 25.3415 53.2928 25.3426 52.8486V44.3888V44.3875ZM28.7287 30.8029C28.2832 30.8027 27.8422 30.7149 27.4308 30.5446C27.0194 30.3742 26.6457 30.1246 26.3312 29.81C26.0167 29.4955 25.7675 29.1221 25.5978 28.7114C25.4282 28.3007 25.3415 27.8606 25.3426 27.4164C25.3418 26.9726 25.4288 26.533 25.5986 26.1228C25.7684 25.7126 26.0178 25.3398 26.3323 25.0258C26.6468 24.7118 27.0204 24.4628 27.4316 24.293C27.8428 24.1232 28.2836 24.0359 28.7287 24.0363C29.1736 24.0361 29.6143 24.1234 30.0253 24.2933C30.4364 24.4632 30.8098 24.7122 31.1242 25.0262C31.4386 25.3402 31.6878 25.7129 31.8576 26.1231C32.0273 26.5332 32.1143 26.9727 32.1134 27.4164V30.8029H28.7287ZM28.7287 32.5224C29.1736 32.5223 29.6143 32.6096 30.0253 32.7795C30.4364 32.9494 30.8098 33.1984 31.1242 33.5124C31.4386 33.8264 31.6878 34.1991 31.8576 34.6092C32.0273 35.0194 32.1143 35.4589 32.1134 35.9026C32.1134 37.7739 30.6003 39.289 28.7287 39.289H20.2435C19.798 39.2889 19.3569 39.2011 18.9456 39.0307C18.5342 38.8604 18.1605 38.6108 17.846 38.2962C17.5315 37.9816 17.2823 37.6083 17.1126 37.1976C16.943 36.7868 16.8563 36.3468 16.8574 35.9026C16.8566 35.4588 16.9436 35.0192 17.1134 34.609C17.2832 34.1987 17.5326 33.8259 17.8471 33.5119C18.1616 33.1979 18.5352 32.9489 18.9464 32.7791C19.3576 32.6093 19.7984 32.5221 20.2435 32.5224H28.7287ZM42.2942 35.9026C42.2933 35.4589 42.3803 35.0194 42.55 34.6092C42.7198 34.1991 42.969 33.8264 43.2834 33.5124C43.5978 33.1984 43.9712 32.9494 44.3823 32.7795C44.7934 32.6096 45.234 32.5223 45.679 32.5224C46.124 32.5221 46.5648 32.6093 46.976 32.7791C47.3872 32.9489 47.7608 33.1979 48.0753 33.5119C48.3898 33.8259 48.6392 34.1987 48.809 34.609C48.9788 35.0192 49.0658 35.4588 49.065 35.9026C49.065 37.7739 47.5518 39.289 45.679 39.289H42.2942V35.9026ZM40.6037 35.9026C40.6037 37.7739 39.0905 39.289 37.2189 39.289C36.7734 39.2889 36.3324 39.2011 35.921 39.0307C35.5096 38.8604 35.1359 38.6108 34.8214 38.2962C34.5069 37.9816 34.2577 37.6083 34.0881 37.1976C33.9184 36.7868 33.8317 36.3468 33.8329 35.9026V27.4164C33.832 26.9726 33.919 26.533 34.0889 26.1228C34.2587 25.7126 34.508 25.3398 34.8225 25.0258C35.1371 24.7118 35.5107 24.4628 35.9219 24.293C36.3331 24.1232 36.7738 24.0359 37.2189 24.0363C37.6639 24.0361 38.1045 24.1234 38.5156 24.2933C38.9266 24.4632 39.3 24.7122 39.6144 25.0262C39.9289 25.3402 40.1781 25.7129 40.3478 26.1231C40.5176 26.5332 40.6045 26.9727 40.6037 27.4164V35.9026ZM37.2189 49.4684C37.664 49.4683 38.1047 49.5557 38.5158 49.7256C38.927 49.8956 39.3005 50.1447 39.6149 50.4588C39.9293 50.7729 40.1785 51.1458 40.3482 51.5561C40.5178 51.9664 40.6047 52.406 40.6037 52.8498C40.6047 53.2938 40.5179 53.7336 40.3482 54.1441C40.1786 54.5547 39.9295 54.9278 39.6151 55.2422C39.3008 55.5566 38.9273 55.8061 38.5161 55.9765C38.105 56.1468 37.6642 56.2347 37.2189 56.235C36.7734 56.2349 36.3324 56.1471 35.921 55.9767C35.5096 55.8064 35.1359 55.5568 34.8214 55.2422C34.5069 54.9276 34.2577 54.5543 34.0881 54.1436C33.9184 53.7328 33.8317 53.2928 33.8329 52.8486V49.4684H37.2189ZM37.2189 47.7739C36.7734 47.7738 36.3324 47.686 35.921 47.5156C35.5096 47.3453 35.1359 47.0957 34.8214 46.7811C34.5069 46.4665 34.2577 46.0932 34.0881 45.6825C33.9184 45.2718 33.8317 44.8317 33.8329 44.3875C33.832 43.9437 33.919 43.5041 34.0889 43.0939C34.2587 42.6836 34.508 42.3109 34.8225 41.9969C35.1371 41.6829 35.5107 41.4338 35.9219 41.264C36.3331 41.0942 36.7738 41.007 37.2189 41.0073H45.7041C46.1492 41.0072 46.5899 41.0946 47.0011 41.2645C47.4122 41.4345 47.7857 41.6836 48.1001 41.9977C48.4145 42.3119 48.6637 42.6847 48.8334 43.095C49.003 43.5053 49.0899 43.945 49.0889 44.3888C49.0899 44.8327 49.0031 45.2726 48.8334 45.6831C48.6638 46.0936 48.4147 46.4667 48.1003 46.7811C47.786 47.0955 47.4125 47.345 47.0013 47.5154C46.5902 47.6858 46.1494 47.7736 45.7041 47.7739H37.2189Z" fill="#072125"/>
</g>
</svg>
