<svg width="150" height="32" viewBox="0 0 150 32" fill="none" xmlns="http://www.w3.org/2000/svg">
<g opacity="0.3">
<path d="M133.331 5.05148H146.285V7.78917H143.735C142.654 7.78917 141.759 8.1641 141.032 8.91565L132.368 18.1589V22.6362C132.368 23.3877 132.74 23.7626 133.5 23.7626H136.709V26.5003H121.087V23.7626H124.312C125.072 23.7626 125.427 23.3877 125.427 22.6362V18.4494L116.543 8.91565C115.817 8.1641 114.922 7.78917 113.841 7.78917H111.308V5.05148H127.217V7.78917H125.63C125.258 7.78917 125.005 7.92259 124.887 8.19112C124.785 8.45965 124.819 8.70116 125.022 8.91565L130.274 14.5194L135.527 8.91565C135.712 8.70116 135.763 8.45965 135.645 8.19112C135.543 7.92259 135.29 7.78917 134.902 7.78917H133.331V5.05148ZM104.738 26.5003H100.313L82.6999 11.4287V22.6362C82.6999 23.3877 83.0765 23.7626 83.8247 23.7626H87.0488V26.5003H73.8755V23.7626H77.0962C77.8477 23.7626 78.2227 23.3877 78.2227 22.6362V8.91565C78.2227 8.1641 77.8477 7.78917 77.0962 7.78917H73.8755V5.05148H84.9191L100.246 18.1589V8.91565C100.246 8.1641 99.8742 7.78917 99.1311 7.78917H95.9053V5.05148H109.079V7.78917H105.853C105.093 7.78917 104.738 8.1641 104.738 8.91565V26.5003ZM54.4246 3.71558C44.3875 3.71558 37.7418 8.88188 37.7418 15.7759C37.7418 22.6699 44.3875 27.8362 54.4246 27.8362C64.4633 27.8362 71.1091 22.6699 71.1091 15.7759C71.1091 8.88188 64.4633 3.71558 54.4246 3.71558ZM54.4246 6.93121C60.182 6.93121 63.9921 10.7194 63.9921 15.7759C63.9921 20.8307 60.182 24.6206 54.4246 24.6206C48.6689 24.6206 44.8571 20.8307 44.8571 15.7759C44.8571 10.7194 48.6689 6.93121 54.4246 6.93121ZM28.74 4.79646H31.4777V12.0401H28.74C27.3754 7.54934 20.5912 6.87717 16.3369 6.87717C12.6162 6.87717 9.83634 7.85503 9.83634 9.74489C9.83634 11.9286 15.0702 11.9911 19.3025 12.5636C24.7526 13.3017 32.7005 13.175 32.7005 20.2987C32.7005 25.9193 25.2356 27.8261 20.5608 27.8362C12.1906 27.8548 9.59314 25.4448 7.67794 25.4448C7.14595 25.4448 6.87235 25.9582 6.87235 26.985H4.13466V18.8564H6.87235C7.90088 23.7559 15.4333 24.8233 18.6084 24.8233C20.858 24.8233 26.6475 24.3825 26.6475 21.7073C26.6475 19.1722 22.932 19.304 18.4193 18.6605C13.4725 17.9529 3.71582 17.7992 3.71582 11.221C3.71582 6.14419 9.40399 3.71558 15.7863 3.71558C23.1988 3.71558 26.8637 6.12224 27.9615 6.12224C28.4799 6.12224 28.74 5.64597 28.74 4.79646Z" fill="#072125"/>
</g>
</svg>
